<mxfile host="app.diagrams.net" modified="2022-09-19T13:33:32.580Z" agent="5.0 (Windows NT 10.0; Win64; x64) AppleWebKit/537.36 (KHTML, like Gecko) Chrome/105.0.0.0 Safari/537.36" etag="68o-nv_8GeigvPs0k9dJ" version="20.3.2" type="github">
  <diagram id="d8WU3TwWJBDE8x7x_nA4" name="Страница 1">
    <mxGraphModel dx="1385" dy="623" grid="1" gridSize="10" guides="1" tooltips="1" connect="1" arrows="1" fold="1" page="1" pageScale="1" pageWidth="827" pageHeight="1169" math="0" shadow="0">
      <root>
        <mxCell id="0" />
        <mxCell id="1" parent="0" />
        <mxCell id="AHrzSQpsfXCL5jtqtqgg-1" value="frame" style="shape=umlFrame;whiteSpace=wrap;html=1;" parent="1" vertex="1">
          <mxGeometry x="190" y="280" width="450" height="540" as="geometry" />
        </mxCell>
        <mxCell id="AHrzSQpsfXCL5jtqtqgg-2" value="Художник-споживач" style="shape=umlActor;verticalLabelPosition=bottom;verticalAlign=top;html=1;" parent="1" vertex="1">
          <mxGeometry x="120" y="580" width="30" height="60" as="geometry" />
        </mxCell>
        <mxCell id="AHrzSQpsfXCL5jtqtqgg-3" value="Користувач" style="shape=umlActor;verticalLabelPosition=bottom;verticalAlign=top;html=1;" parent="1" vertex="1">
          <mxGeometry x="70" y="450" width="30" height="60" as="geometry" />
        </mxCell>
        <mxCell id="AHrzSQpsfXCL5jtqtqgg-4" value="Робітник за складу фарб" style="shape=umlActor;verticalLabelPosition=bottom;verticalAlign=top;html=1;" parent="1" vertex="1">
          <mxGeometry x="700" y="480" width="30" height="60" as="geometry" />
        </mxCell>
        <mxCell id="AHrzSQpsfXCL5jtqtqgg-5" value="Друзі" style="shape=umlActor;verticalLabelPosition=bottom;verticalAlign=top;html=1;" parent="1" vertex="1">
          <mxGeometry x="130" y="375" width="30" height="60" as="geometry" />
        </mxCell>
        <mxCell id="AHrzSQpsfXCL5jtqtqgg-6" value="Спеціаліст з освітлення" style="shape=umlActor;verticalLabelPosition=bottom;verticalAlign=top;html=1;" parent="1" vertex="1">
          <mxGeometry x="710" y="570" width="30" height="60" as="geometry" />
        </mxCell>
        <mxCell id="AHrzSQpsfXCL5jtqtqgg-8" value="Авторизувати користувача" style="ellipse;whiteSpace=wrap;html=1;" parent="1" vertex="1">
          <mxGeometry x="450" y="400" width="110" height="50" as="geometry" />
        </mxCell>
        <mxCell id="AHrzSQpsfXCL5jtqtqgg-11" value="Створити замолення" style="ellipse;whiteSpace=wrap;html=1;" parent="1" vertex="1">
          <mxGeometry x="251.5" y="380" width="117" height="50" as="geometry" />
        </mxCell>
        <mxCell id="AHrzSQpsfXCL5jtqtqgg-12" value="Замовити потрібні фарби" style="ellipse;whiteSpace=wrap;html=1;" parent="1" vertex="1">
          <mxGeometry x="210" y="480" width="120" height="50" as="geometry" />
        </mxCell>
        <mxCell id="AHrzSQpsfXCL5jtqtqgg-13" value="Завести друзів" style="ellipse;whiteSpace=wrap;html=1;" parent="1" vertex="1">
          <mxGeometry x="251" y="600" width="129" height="55" as="geometry" />
        </mxCell>
        <mxCell id="AHrzSQpsfXCL5jtqtqgg-14" value="Створити живопис" style="ellipse;whiteSpace=wrap;html=1;" parent="1" vertex="1">
          <mxGeometry x="241" y="535" width="120" height="50" as="geometry" />
        </mxCell>
        <mxCell id="AHrzSQpsfXCL5jtqtqgg-16" value="Сформувати вимоги з освітлення" style="ellipse;whiteSpace=wrap;html=1;" parent="1" vertex="1">
          <mxGeometry x="230" y="680" width="120" height="50" as="geometry" />
        </mxCell>
        <mxCell id="AHrzSQpsfXCL5jtqtqgg-17" value="" style="endArrow=none;html=1;rounded=0;entryX=0;entryY=0.5;entryDx=0;entryDy=0;" parent="1" target="AHrzSQpsfXCL5jtqtqgg-12" edge="1">
          <mxGeometry width="50" height="50" relative="1" as="geometry">
            <mxPoint x="160" y="600" as="sourcePoint" />
            <mxPoint x="390" y="620" as="targetPoint" />
          </mxGeometry>
        </mxCell>
        <mxCell id="AHrzSQpsfXCL5jtqtqgg-18" value="" style="endArrow=none;html=1;rounded=0;entryX=0;entryY=0.5;entryDx=0;entryDy=0;" parent="1" target="AHrzSQpsfXCL5jtqtqgg-14" edge="1">
          <mxGeometry width="50" height="50" relative="1" as="geometry">
            <mxPoint x="170" y="610" as="sourcePoint" />
            <mxPoint x="240" y="575" as="targetPoint" />
          </mxGeometry>
        </mxCell>
        <mxCell id="AHrzSQpsfXCL5jtqtqgg-19" value="" style="endArrow=none;html=1;rounded=0;entryX=0;entryY=0.5;entryDx=0;entryDy=0;" parent="1" target="AHrzSQpsfXCL5jtqtqgg-16" edge="1">
          <mxGeometry width="50" height="50" relative="1" as="geometry">
            <mxPoint x="160" y="640" as="sourcePoint" />
            <mxPoint x="250" y="585" as="targetPoint" />
          </mxGeometry>
        </mxCell>
        <mxCell id="AHrzSQpsfXCL5jtqtqgg-21" value="" style="endArrow=none;html=1;rounded=0;" parent="1" edge="1">
          <mxGeometry width="50" height="50" relative="1" as="geometry">
            <mxPoint x="160" y="660" as="sourcePoint" />
            <mxPoint x="160" y="840" as="targetPoint" />
          </mxGeometry>
        </mxCell>
        <mxCell id="AHrzSQpsfXCL5jtqtqgg-22" value="" style="endArrow=none;html=1;rounded=0;" parent="1" edge="1">
          <mxGeometry width="50" height="50" relative="1" as="geometry">
            <mxPoint x="160" y="840" as="sourcePoint" />
            <mxPoint x="440" y="840" as="targetPoint" />
          </mxGeometry>
        </mxCell>
        <mxCell id="AHrzSQpsfXCL5jtqtqgg-23" value="" style="endArrow=none;html=1;rounded=0;exitX=0.5;exitY=1;exitDx=0;exitDy=0;" parent="1" source="AHrzSQpsfXCL5jtqtqgg-28" edge="1">
          <mxGeometry width="50" height="50" relative="1" as="geometry">
            <mxPoint x="340" y="790" as="sourcePoint" />
            <mxPoint x="440" y="840" as="targetPoint" />
          </mxGeometry>
        </mxCell>
        <mxCell id="AHrzSQpsfXCL5jtqtqgg-28" value="Сплатити рахунок" style="ellipse;whiteSpace=wrap;html=1;" parent="1" vertex="1">
          <mxGeometry x="380" y="700" width="120" height="50" as="geometry" />
        </mxCell>
        <mxCell id="AHrzSQpsfXCL5jtqtqgg-29" value="" style="endArrow=none;html=1;rounded=0;exitX=0;exitY=0.5;exitDx=0;exitDy=0;" parent="1" source="AHrzSQpsfXCL5jtqtqgg-13" edge="1">
          <mxGeometry width="50" height="50" relative="1" as="geometry">
            <mxPoint x="340" y="670" as="sourcePoint" />
            <mxPoint x="170" y="630" as="targetPoint" />
          </mxGeometry>
        </mxCell>
        <mxCell id="AHrzSQpsfXCL5jtqtqgg-32" value="&amp;lt;&amp;lt;include&amp;gt;&amp;gt;" style="endArrow=open;endSize=12;dashed=1;html=1;rounded=0;exitX=1;exitY=0.5;exitDx=0;exitDy=0;" parent="1" source="AHrzSQpsfXCL5jtqtqgg-11" target="AHrzSQpsfXCL5jtqtqgg-8" edge="1">
          <mxGeometry width="160" relative="1" as="geometry">
            <mxPoint x="290" y="480" as="sourcePoint" />
            <mxPoint x="450" y="480" as="targetPoint" />
          </mxGeometry>
        </mxCell>
        <mxCell id="AHrzSQpsfXCL5jtqtqgg-33" value="" style="endArrow=none;html=1;rounded=0;entryX=0;entryY=0.5;entryDx=0;entryDy=0;" parent="1" target="AHrzSQpsfXCL5jtqtqgg-8" edge="1">
          <mxGeometry width="50" height="50" relative="1" as="geometry">
            <mxPoint x="110" y="490" as="sourcePoint" />
            <mxPoint x="420" y="560" as="targetPoint" />
          </mxGeometry>
        </mxCell>
        <mxCell id="AHrzSQpsfXCL5jtqtqgg-34" value="Оцінити живопис" style="ellipse;whiteSpace=wrap;html=1;" parent="1" vertex="1">
          <mxGeometry x="289" y="310" width="110" height="50" as="geometry" />
        </mxCell>
        <mxCell id="AHrzSQpsfXCL5jtqtqgg-35" value="" style="endArrow=block;endSize=16;endFill=0;html=1;rounded=0;" parent="1" edge="1">
          <mxGeometry x="-1" y="-22" width="160" relative="1" as="geometry">
            <mxPoint x="134.5" y="560" as="sourcePoint" />
            <mxPoint x="135" y="500" as="targetPoint" />
            <mxPoint x="4" y="6" as="offset" />
          </mxGeometry>
        </mxCell>
        <mxCell id="AHrzSQpsfXCL5jtqtqgg-36" value="" style="endArrow=open;endFill=1;endSize=12;html=1;rounded=0;exitX=1;exitY=0;exitDx=0;exitDy=0;" parent="1" source="AHrzSQpsfXCL5jtqtqgg-28" target="AHrzSQpsfXCL5jtqtqgg-4" edge="1">
          <mxGeometry width="160" relative="1" as="geometry">
            <mxPoint x="320" y="490" as="sourcePoint" />
            <mxPoint x="620" y="610" as="targetPoint" />
          </mxGeometry>
        </mxCell>
        <mxCell id="AHrzSQpsfXCL5jtqtqgg-37" value="" style="endArrow=open;endFill=1;endSize=12;html=1;rounded=0;exitX=1;exitY=0.5;exitDx=0;exitDy=0;" parent="1" source="AHrzSQpsfXCL5jtqtqgg-28" edge="1">
          <mxGeometry width="160" relative="1" as="geometry">
            <mxPoint x="511.42640687119297" y="717.3223304703363" as="sourcePoint" />
            <mxPoint x="700" y="620" as="targetPoint" />
          </mxGeometry>
        </mxCell>
        <mxCell id="AHrzSQpsfXCL5jtqtqgg-38" value="" style="endArrow=open;endFill=1;endSize=12;html=1;rounded=0;exitX=1;exitY=0.5;exitDx=0;exitDy=0;" parent="1" source="AHrzSQpsfXCL5jtqtqgg-16" edge="1">
          <mxGeometry width="160" relative="1" as="geometry">
            <mxPoint x="610" y="690" as="sourcePoint" />
            <mxPoint x="700" y="610" as="targetPoint" />
          </mxGeometry>
        </mxCell>
        <mxCell id="AHrzSQpsfXCL5jtqtqgg-39" value="Виконати вимогу" style="ellipse;whiteSpace=wrap;html=1;" parent="1" vertex="1">
          <mxGeometry x="500" y="517.5" width="123" height="52.5" as="geometry" />
        </mxCell>
        <mxCell id="AHrzSQpsfXCL5jtqtqgg-40" value="" style="endArrow=none;html=1;rounded=0;entryX=0;entryY=0.5;entryDx=0;entryDy=0;" parent="1" target="AHrzSQpsfXCL5jtqtqgg-39" edge="1">
          <mxGeometry width="50" height="50" relative="1" as="geometry">
            <mxPoint x="180" y="620" as="sourcePoint" />
            <mxPoint x="240" y="695" as="targetPoint" />
          </mxGeometry>
        </mxCell>
        <mxCell id="AHrzSQpsfXCL5jtqtqgg-41" value="" style="endArrow=open;endFill=1;endSize=12;html=1;rounded=0;entryX=1;entryY=0.5;entryDx=0;entryDy=0;" parent="1" target="AHrzSQpsfXCL5jtqtqgg-39" edge="1">
          <mxGeometry width="160" relative="1" as="geometry">
            <mxPoint x="690" y="510" as="sourcePoint" />
            <mxPoint x="630" y="620" as="targetPoint" />
          </mxGeometry>
        </mxCell>
        <mxCell id="AHrzSQpsfXCL5jtqtqgg-42" value="" style="endArrow=open;endFill=1;endSize=12;html=1;rounded=0;entryX=0.959;entryY=0.705;entryDx=0;entryDy=0;entryPerimeter=0;" parent="1" target="AHrzSQpsfXCL5jtqtqgg-39" edge="1">
          <mxGeometry width="160" relative="1" as="geometry">
            <mxPoint x="690" y="595" as="sourcePoint" />
            <mxPoint x="490" y="646.25" as="targetPoint" />
          </mxGeometry>
        </mxCell>
        <mxCell id="AHrzSQpsfXCL5jtqtqgg-43" value="" style="endArrow=open;endFill=1;endSize=12;html=1;rounded=0;entryX=0.001;entryY=0.673;entryDx=0;entryDy=0;entryPerimeter=0;" parent="1" edge="1" target="AHrzSQpsfXCL5jtqtqgg-11">
          <mxGeometry width="160" relative="1" as="geometry">
            <mxPoint x="170" y="430" as="sourcePoint" />
            <mxPoint x="230" y="460" as="targetPoint" />
          </mxGeometry>
        </mxCell>
        <mxCell id="AHrzSQpsfXCL5jtqtqgg-44" value="" style="endArrow=block;endSize=16;endFill=0;html=1;rounded=0;" parent="1" edge="1">
          <mxGeometry x="-1" y="-22" width="160" relative="1" as="geometry">
            <mxPoint x="130" y="400" as="sourcePoint" />
            <mxPoint x="90" y="430" as="targetPoint" />
            <mxPoint x="4" y="6" as="offset" />
          </mxGeometry>
        </mxCell>
        <mxCell id="AHrzSQpsfXCL5jtqtqgg-45" value="" style="endArrow=none;html=1;rounded=0;entryX=0.032;entryY=0.64;entryDx=0;entryDy=0;entryPerimeter=0;" parent="1" target="AHrzSQpsfXCL5jtqtqgg-34" edge="1">
          <mxGeometry width="50" height="50" relative="1" as="geometry">
            <mxPoint x="170" y="410" as="sourcePoint" />
            <mxPoint x="420" y="460" as="targetPoint" />
          </mxGeometry>
        </mxCell>
        <mxCell id="AHrzSQpsfXCL5jtqtqgg-47" value="Cтворити Online-запит" style="ellipse;whiteSpace=wrap;html=1;" parent="1" vertex="1">
          <mxGeometry x="310.5" y="760" width="110" height="50" as="geometry" />
        </mxCell>
        <mxCell id="AHrzSQpsfXCL5jtqtqgg-49" value="Google Search API" style="shape=umlActor;verticalLabelPosition=bottom;verticalAlign=top;html=1;" parent="1" vertex="1">
          <mxGeometry x="660" y="820" width="30" height="60" as="geometry" />
        </mxCell>
        <mxCell id="AHrzSQpsfXCL5jtqtqgg-50" value="" style="endArrow=none;html=1;rounded=0;exitX=1;exitY=0.5;exitDx=0;exitDy=0;" parent="1" source="AHrzSQpsfXCL5jtqtqgg-47" target="AHrzSQpsfXCL5jtqtqgg-49" edge="1">
          <mxGeometry width="50" height="50" relative="1" as="geometry">
            <mxPoint x="370" y="650" as="sourcePoint" />
            <mxPoint x="420" y="600" as="targetPoint" />
          </mxGeometry>
        </mxCell>
        <mxCell id="AHrzSQpsfXCL5jtqtqgg-51" value="&amp;lt;&amp;lt;include&amp;gt;&amp;gt;" style="endArrow=open;endSize=12;dashed=1;html=1;rounded=0;exitX=1;exitY=0.5;exitDx=0;exitDy=0;entryX=0.5;entryY=0;entryDx=0;entryDy=0;" parent="1" source="AHrzSQpsfXCL5jtqtqgg-34" target="AHrzSQpsfXCL5jtqtqgg-8" edge="1">
          <mxGeometry width="160" relative="1" as="geometry">
            <mxPoint x="377" y="465" as="sourcePoint" />
            <mxPoint x="442.3620757965459" y="489.20817622094296" as="targetPoint" />
          </mxGeometry>
        </mxCell>
        <mxCell id="AHrzSQpsfXCL5jtqtqgg-52" value="&amp;lt;&amp;lt;include&amp;gt;&amp;gt;" style="endArrow=open;endSize=12;dashed=1;html=1;rounded=0;exitX=1;exitY=0.5;exitDx=0;exitDy=0;entryX=0;entryY=1;entryDx=0;entryDy=0;" parent="1" source="AHrzSQpsfXCL5jtqtqgg-12" target="AHrzSQpsfXCL5jtqtqgg-8" edge="1">
          <mxGeometry width="160" relative="1" as="geometry">
            <mxPoint x="387" y="475" as="sourcePoint" />
            <mxPoint x="452.3620757965459" y="499.20817622094296" as="targetPoint" />
          </mxGeometry>
        </mxCell>
        <mxCell id="AHrzSQpsfXCL5jtqtqgg-53" value="&amp;lt;&amp;lt;include&amp;gt;&amp;gt;" style="endArrow=open;endSize=12;dashed=1;html=1;rounded=0;exitX=1;exitY=0.5;exitDx=0;exitDy=0;entryX=0.286;entryY=1;entryDx=0;entryDy=0;entryPerimeter=0;" parent="1" source="AHrzSQpsfXCL5jtqtqgg-14" target="AHrzSQpsfXCL5jtqtqgg-8" edge="1">
          <mxGeometry width="160" relative="1" as="geometry">
            <mxPoint x="397" y="485" as="sourcePoint" />
            <mxPoint x="430" y="510" as="targetPoint" />
          </mxGeometry>
        </mxCell>
        <mxCell id="AHrzSQpsfXCL5jtqtqgg-54" value="&amp;lt;&amp;lt;extend&amp;gt;&amp;gt;" style="endArrow=open;endSize=12;dashed=1;html=1;rounded=0;exitX=0;exitY=0;exitDx=0;exitDy=0;entryX=0.5;entryY=1;entryDx=0;entryDy=0;" parent="1" source="AHrzSQpsfXCL5jtqtqgg-47" target="AHrzSQpsfXCL5jtqtqgg-16" edge="1">
          <mxGeometry width="160" relative="1" as="geometry">
            <mxPoint x="380" y="605" as="sourcePoint" />
            <mxPoint x="485" y="530" as="targetPoint" />
          </mxGeometry>
        </mxCell>
        <mxCell id="AHrzSQpsfXCL5jtqtqgg-55" value="сервіс E-Pay" style="shape=umlActor;verticalLabelPosition=bottom;verticalAlign=top;html=1;" parent="1" vertex="1">
          <mxGeometry x="680" y="675" width="30" height="60" as="geometry" />
        </mxCell>
        <mxCell id="AHrzSQpsfXCL5jtqtqgg-56" value="Оплатити через &lt;br&gt;E-сплату" style="ellipse;whiteSpace=wrap;html=1;" parent="1" vertex="1">
          <mxGeometry x="490" y="760" width="120" height="50" as="geometry" />
        </mxCell>
        <mxCell id="AHrzSQpsfXCL5jtqtqgg-57" value="" style="endArrow=none;html=1;rounded=0;exitX=0.5;exitY=0;exitDx=0;exitDy=0;" parent="1" source="AHrzSQpsfXCL5jtqtqgg-56" edge="1">
          <mxGeometry width="50" height="50" relative="1" as="geometry">
            <mxPoint x="410" y="650" as="sourcePoint" />
            <mxPoint x="650" y="710" as="targetPoint" />
          </mxGeometry>
        </mxCell>
        <mxCell id="AHrzSQpsfXCL5jtqtqgg-58" value="&amp;lt;&amp;lt;extend&amp;gt;&amp;gt;" style="endArrow=open;endSize=12;dashed=1;html=1;rounded=0;exitX=0.317;exitY=0.06;exitDx=0;exitDy=0;entryX=1;entryY=0.5;entryDx=0;entryDy=0;exitPerimeter=0;" parent="1" source="AHrzSQpsfXCL5jtqtqgg-56" target="AHrzSQpsfXCL5jtqtqgg-28" edge="1">
          <mxGeometry width="160" relative="1" as="geometry">
            <mxPoint x="366.1091270347399" y="777.3223304703363" as="sourcePoint" />
            <mxPoint x="332.42640687119285" y="737.6776695296635" as="targetPoint" />
          </mxGeometry>
        </mxCell>
        <mxCell id="AHrzSQpsfXCL5jtqtqgg-60" value="&amp;lt;&amp;lt;include&amp;gt;&amp;gt;" style="endArrow=open;endSize=12;dashed=1;html=1;rounded=0;exitX=1;exitY=0;exitDx=0;exitDy=0;entryX=0.355;entryY=1.02;entryDx=0;entryDy=0;entryPerimeter=0;" parent="1" source="AHrzSQpsfXCL5jtqtqgg-13" target="AHrzSQpsfXCL5jtqtqgg-8" edge="1">
          <mxGeometry width="160" relative="1" as="geometry">
            <mxPoint x="380" y="590" as="sourcePoint" />
            <mxPoint x="485.5" y="510" as="targetPoint" />
          </mxGeometry>
        </mxCell>
        <mxCell id="AHrzSQpsfXCL5jtqtqgg-61" value="&amp;lt;&amp;lt;include&amp;gt;&amp;gt;" style="endArrow=open;endSize=12;dashed=1;html=1;rounded=0;exitX=0.942;exitY=0.18;exitDx=0;exitDy=0;entryX=0.5;entryY=1;entryDx=0;entryDy=0;exitPerimeter=0;" parent="1" source="AHrzSQpsfXCL5jtqtqgg-16" target="AHrzSQpsfXCL5jtqtqgg-8" edge="1">
          <mxGeometry width="160" relative="1" as="geometry">
            <mxPoint x="361.3487170931794" y="638.157572476315" as="sourcePoint" />
            <mxPoint x="480" y="515" as="targetPoint" />
          </mxGeometry>
        </mxCell>
        <mxCell id="AHrzSQpsfXCL5jtqtqgg-62" value="&amp;lt;&amp;lt;include&amp;gt;&amp;gt;" style="endArrow=open;endSize=12;dashed=1;html=1;rounded=0;entryX=0.618;entryY=1.06;entryDx=0;entryDy=0;entryPerimeter=0;" parent="1" source="AHrzSQpsfXCL5jtqtqgg-28" target="AHrzSQpsfXCL5jtqtqgg-8" edge="1">
          <mxGeometry width="160" relative="1" as="geometry">
            <mxPoint x="371.3487170931794" y="648.157572476315" as="sourcePoint" />
            <mxPoint x="490" y="525" as="targetPoint" />
          </mxGeometry>
        </mxCell>
        <mxCell id="AHrzSQpsfXCL5jtqtqgg-65" value="&amp;lt;&amp;lt;extend&amp;gt;&amp;gt;" style="endArrow=open;endSize=12;dashed=1;html=1;rounded=0;entryX=0;entryY=1;entryDx=0;entryDy=0;" parent="1" target="AHrzSQpsfXCL5jtqtqgg-12" edge="1">
          <mxGeometry width="160" relative="1" as="geometry">
            <mxPoint x="230" y="780" as="sourcePoint" />
            <mxPoint x="300" y="740" as="targetPoint" />
          </mxGeometry>
        </mxCell>
        <mxCell id="AHrzSQpsfXCL5jtqtqgg-66" value="" style="endArrow=open;endFill=1;endSize=12;html=1;rounded=0;exitX=0.908;exitY=0.8;exitDx=0;exitDy=0;exitPerimeter=0;" parent="1" source="AHrzSQpsfXCL5jtqtqgg-12" edge="1">
          <mxGeometry width="160" relative="1" as="geometry">
            <mxPoint x="360" y="715" as="sourcePoint" />
            <mxPoint x="680" y="500" as="targetPoint" />
          </mxGeometry>
        </mxCell>
        <mxCell id="AHrzSQpsfXCL5jtqtqgg-67" value="&amp;lt;&amp;lt;include&amp;gt;&amp;gt;" style="endArrow=open;endSize=12;dashed=1;html=1;rounded=0;entryX=1;entryY=1;entryDx=0;entryDy=0;exitX=0.5;exitY=0;exitDx=0;exitDy=0;" parent="1" source="AHrzSQpsfXCL5jtqtqgg-39" target="AHrzSQpsfXCL5jtqtqgg-8" edge="1">
          <mxGeometry width="160" relative="1" as="geometry">
            <mxPoint x="455.8806407811878" y="710.1203659257435" as="sourcePoint" />
            <mxPoint x="515" y="460" as="targetPoint" />
          </mxGeometry>
        </mxCell>
        <mxCell id="AHrzSQpsfXCL5jtqtqgg-68" value="" style="endArrow=none;dashed=1;html=1;rounded=0;exitX=0;exitY=0.5;exitDx=0;exitDy=0;" parent="1" source="AHrzSQpsfXCL5jtqtqgg-47" edge="1">
          <mxGeometry width="50" height="50" relative="1" as="geometry">
            <mxPoint x="400" y="610" as="sourcePoint" />
            <mxPoint x="230" y="785" as="targetPoint" />
          </mxGeometry>
        </mxCell>
      </root>
    </mxGraphModel>
  </diagram>
</mxfile>
